<?xml version="1.0" encoding="utf-8"?>
<!-- Generator: Adobe Illustrator 24.2.3, SVG Export Plug-In . SVG Version: 6.00 Build 0)  -->
<svg version="1.1" id="Calque_1" xmlns="http://www.w3.org/2000/svg" xmlns:xlink="http://www.w3.org/1999/xlink" x="0px" y="0px"
	 viewBox="0 0 32 32" enable-background="new 0 0 32 32" xml:space="preserve">
<circle stroke="#000000" stroke-width="2" stroke-miterlimit="10" cx="0" cy="0" r="2"/>
<circle stroke="#000000" stroke-width="2" stroke-miterlimit="10" cx="32" cy="0" r="2"/>
<circle stroke="#000000" stroke-width="2" stroke-miterlimit="10" cx="0" cy="32" r="2"/>
<circle stroke="#000000" stroke-width="2" stroke-miterlimit="10" cx="32" cy="32" r="2"/>
<polygon points="20,15 17,15 17,12 15,12 15,15 12,15 12,17 15,17 15,20 17,20 17,17 20,17 "/>
<rect x="-1" y="15" transform="matrix(0.7071 0.7071 -0.7071 0.7071 11.3137 4.6863)" width="2" height="2"/>
<rect x="31" y="15" transform="matrix(0.7071 0.7071 -0.7071 0.7071 20.6863 -17.9411)" width="2" height="2"/>
<rect x="15" y="-1" transform="matrix(0.7071 0.7071 -0.7071 0.7071 4.6863 -11.3137)" width="2" height="2"/>
<rect x="15" y="31" transform="matrix(0.7071 0.7071 -0.7071 0.7071 27.3137 -1.9411)" width="2" height="2"/>
</svg>
