<?xml version="1.0" encoding="utf-8"?>
<!-- Generator: Adobe Illustrator 24.2.3, SVG Export Plug-In . SVG Version: 6.00 Build 0)  -->
<svg version="1.1" id="Calque_1" xmlns="http://www.w3.org/2000/svg" xmlns:xlink="http://www.w3.org/1999/xlink" x="0px" y="0px"
	 viewBox="0 0 1024 1024" style="enable-background:new 0 0 1024 1024;" xml:space="preserve">
<style type="text/css">
	.st0{fill:url(#SVGID_1_);}
</style>
<rect x="0" y="0" width="1024" height="1024"/>
<radialGradient id="SVGID_1_" cx="506.9" cy="514" r="365.9214" gradientTransform="matrix(-2.650302e-07 -1 -1 3.533736e-07 1026.0002 1023.9998)" gradientUnits="userSpaceOnUse">
	<stop  offset="0" style="stop-color:#FFFFFF"/>
	<stop  offset="1" style="stop-color:#FFFFFF"/>
</radialGradient>
<path class="st0" d="M513,56.3c0,0,111.6,56.3,91.1,245.8l67.1-30.7c13.8,107.5-16.9,215-16.9,215l82.9-25.6
	c-5.1,122.9-61.4,209.9-61.4,209.9l71.7-25.6c0,51.2-15.4,209.9-235.5,332.8C291.8,855,276.5,696.3,276.5,645.1l71.7,25.6
	c0,0-56.3-87-61.4-209.9l82.9,25.6c0,0-30.7-107.5-16.9-215l67.1,30.7C399.9,126.5,513,57.3,513,56.3z"/>
</svg>
