<?xml version="1.0" encoding="utf-8"?>
<!-- Generator: Adobe Illustrator 24.0.1, SVG Export Plug-In . SVG Version: 6.00 Build 0)  -->
<svg version="1.1" id="Layer_1" xmlns="http://www.w3.org/2000/svg" xmlns:xlink="http://www.w3.org/1999/xlink" x="0px" y="0px"
	 viewBox="0 0 400 400" style="enable-background:new 0 0 400 400;" xml:space="preserve">
<style type="text/css">
	.st0{fill:#0005FF;}
</style>
<path class="st0" d="M263.2,65.6C317.8,11.1,397.4,2.2,397.4,2.2s-8.9,79.6-63.4,134.1s-134.1,63.4-134.1,63.4
	S208.7,120.2,263.2,65.6z"/>
<path class="st0" d="M2.2,2.6c0,0,79.6,8.9,134.1,63.4s63.4,134.1,63.4,134.1s-79.6-8.9-134.1-63.4S2.2,2.6,2.2,2.6z"/>
<path class="st0" d="M66,263.7c54.6-54.6,134.1-63.4,134.1-63.4s-8.9,79.6-63.4,134.1S2.6,397.8,2.6,397.8S11.5,318.2,66,263.7z"/>
<path class="st0" d="M200.2,199.8c0,0,79.6,8.9,134.1,63.4s63.4,134.1,63.4,134.1s-79.6-8.9-134.1-63.4S200.2,199.8,200.2,199.8z"/>
</svg>
