<?xml version="1.0" encoding="utf-8"?>
<!-- Generator: Adobe Illustrator 24.0.1, SVG Export Plug-In . SVG Version: 6.00 Build 0)  -->
<svg version="1.1" id="Layer_1" xmlns="http://www.w3.org/2000/svg" xmlns:xlink="http://www.w3.org/1999/xlink" x="0px" y="0px"
	 viewBox="0 0 400 400" style="enable-background:new 0 0 400 400;" xml:space="preserve">
<style type="text/css">
	.st0{fill:#0005FF;}
</style>
<path class="st0" d="M291.2,167.2c50.4,0,91.2,32.7,91.2,32.7s-40.8,32.6-91.2,32.6c-50.3,0-91.2-32.6-91.2-32.6
	S240.8,167.2,291.2,167.2z"/>
<path class="st0" d="M199.8,17.6c0,0,32.6,40.8,32.6,91.2c0,50.3-32.6,91.2-32.6,91.2s-32.6-40.8-32.6-91.2
	C167.2,58.5,199.8,17.6,199.8,17.6z"/>
<path class="st0" d="M108.7,167.6c50.4,0,91.2,32.6,91.2,32.6s-40.8,32.6-91.2,32.6c-50.3,0-91.2-32.6-91.2-32.6
	S58.4,167.6,108.7,167.6z"/>
<path class="st0" d="M200.2,200c0,0,32.6,40.8,32.6,91.2s-32.6,91.2-32.6,91.2s-32.6-40.8-32.6-91.2
	C167.5,240.9,200.2,200,200.2,200z"/>
</svg>
