<?xml version="1.0" encoding="utf-8"?>
<!-- Generator: Adobe Illustrator 24.0.1, SVG Export Plug-In . SVG Version: 6.00 Build 0)  -->
<svg version="1.1" id="Layer_1" xmlns="http://www.w3.org/2000/svg" xmlns:xlink="http://www.w3.org/1999/xlink" x="0px" y="0px"
	 viewBox="0 0 400 400" style="enable-background:new 0 0 400 400;" xml:space="preserve">
<style type="text/css">
	.st0{fill:none;stroke:#FF2541;stroke-width:10;stroke-miterlimit:10;}
	.st1{fill:none;}
</style>
<g>
	<path class="st0" d="M200,127.5c0-37.7-44.9,1.4-44.9-37.7"/>
	<path class="st0" d="M200,127.5c0-37.7,44.9,1.4,44.9-37.7"/>
</g>
<g>
	<path class="st0" d="M127.5,200c-37.7,0,1.4,44.9-37.7,44.9"/>
	<path class="st0" d="M127.5,200c-37.7,0,1.4-44.9-37.7-44.9"/>
</g>
<g>
	<path class="st0" d="M200,272.5c0,37.7,44.9-1.4,44.9,37.7"/>
	<path class="st0" d="M200,272.5c0,37.7-44.9-1.4-44.9,37.7"/>
</g>
<g>
	<path class="st0" d="M272.5,200c37.7,0-1.4-44.9,37.7-44.9"/>
	<path class="st0" d="M272.5,200c37.7,0-1.4,44.9,37.7,44.9"/>
</g>
<circle class="st1" cx="200" cy="200" r="22.5"/>
</svg>
