<?xml version="1.0" encoding="utf-8"?>
<!-- Generator: Adobe Illustrator 22.1.0, SVG Export Plug-In . SVG Version: 6.00 Build 0)  -->
<svg version="1.1" id="Layer_1" xmlns="http://www.w3.org/2000/svg" xmlns:xlink="http://www.w3.org/1999/xlink" x="0px" y="0px"
	 viewBox="0 0 512 512" style="enable-background:new 0 0 512 512;" xml:space="preserve">
<g>
	<rect x="45.5" y="45.5" transform="matrix(0.7071 -0.7071 0.7071 0.7071 -23.196 56)" width="21" height="21"/>
</g>
<g>
	<rect x="125.5" y="45.5" transform="matrix(0.7071 -0.7071 0.7071 0.7071 0.2355 112.5686)" width="21" height="21"/>
</g>
<g>
	<rect x="205.5" y="45.5" transform="matrix(0.7071 -0.7071 0.7071 0.7071 23.667 169.1372)" width="21" height="21"/>
</g>
<g>
	<rect x="285.5" y="45.5" transform="matrix(0.7071 -0.7071 0.7071 0.7071 47.0985 225.7058)" width="21" height="21"/>
</g>
<g>
	<rect x="365.5" y="45.5" transform="matrix(0.7071 -0.7071 0.7071 0.7071 70.53 282.2744)" width="21" height="21"/>
</g>
<g>
	<rect x="445.5" y="45.5" transform="matrix(0.7071 -0.7071 0.7071 0.7071 93.9615 338.8429)" width="21" height="21"/>
</g>
<g>
	<rect x="45.5" y="125.5" transform="matrix(0.7071 -0.7071 0.7071 0.7071 -79.7645 79.4315)" width="21" height="21"/>
</g>
<g>
	<rect x="125.5" y="125.5" transform="matrix(0.7071 -0.7071 0.7071 0.7071 -56.333 136.0001)" width="21" height="21"/>
</g>
<g>
	<rect x="205.5" y="125.5" transform="matrix(0.7071 -0.7071 0.7071 0.7071 -32.9016 192.5687)" width="21" height="21"/>
</g>
<g>
	<rect x="285.5" y="125.5" transform="matrix(0.7071 -0.7071 0.7071 0.7071 -9.4701 249.1373)" width="21" height="21"/>
</g>
<g>
	<rect x="365.5" y="125.5" transform="matrix(0.7071 -0.7071 0.7071 0.7071 13.9614 305.7058)" width="21" height="21"/>
</g>
<g>
	<rect x="445.5" y="125.5" transform="matrix(0.7071 -0.7071 0.7071 0.7071 37.3929 362.2744)" width="21" height="21"/>
</g>
<g>
	<rect x="45.5" y="205.5" transform="matrix(0.7071 -0.7071 0.7071 0.7071 -136.3331 102.863)" width="21" height="21"/>
</g>
<g>
	<rect x="125.5" y="205.5" transform="matrix(0.7071 -0.7071 0.7071 0.7071 -112.9016 159.4316)" width="21" height="21"/>
</g>
<g>
	<rect x="205.5" y="205.5" transform="matrix(0.7071 -0.7071 0.7071 0.7071 -89.4701 216.0002)" width="21" height="21"/>
</g>
<g>
	<rect x="285.5" y="205.5" transform="matrix(0.7071 -0.7071 0.7071 0.7071 -66.0386 272.5688)" width="21" height="21"/>
</g>
<g>
	<rect x="365.5" y="205.5" transform="matrix(0.7071 -0.7071 0.7071 0.7071 -42.6072 329.1373)" width="21" height="21"/>
</g>
<g>
	<rect x="445.5" y="205.5" transform="matrix(0.7071 -0.7071 0.7071 0.7071 -19.1757 385.7059)" width="21" height="21"/>
</g>
<g>
	<rect x="45.5" y="285.5" transform="matrix(0.7071 -0.7071 0.7071 0.7071 -192.9017 126.2945)" width="21" height="21"/>
</g>
<g>
	<rect x="125.5" y="285.5" transform="matrix(0.7071 -0.7071 0.7071 0.7071 -169.4702 182.8631)" width="21" height="21"/>
</g>
<g>
	<rect x="205.5" y="285.5" transform="matrix(0.7071 -0.7071 0.7071 0.7071 -146.0387 239.4317)" width="21" height="21"/>
</g>
<g>
	<rect x="285.5" y="285.5" transform="matrix(0.7071 -0.7071 0.7071 0.7071 -122.6072 296.0002)" width="21" height="21"/>
</g>
<g>
	<rect x="365.5" y="285.5" transform="matrix(0.7071 -0.7071 0.7071 0.7071 -99.1757 352.5688)" width="21" height="21"/>
</g>
<g>
	<rect x="445.5" y="285.5" transform="matrix(0.7071 -0.7071 0.7071 0.7071 -75.7442 409.1374)" width="21" height="21"/>
</g>
<g>
	<rect x="45.5" y="365.5" transform="matrix(0.7071 -0.7071 0.7071 0.7071 -249.4703 149.726)" width="21" height="21"/>
</g>
<g>
	<rect x="125.5" y="365.5" transform="matrix(0.7071 -0.7071 0.7071 0.7071 -226.0388 206.2946)" width="21" height="21"/>
</g>
<g>
	<rect x="205.5" y="365.5" transform="matrix(0.7071 -0.7071 0.7071 0.7071 -202.6073 262.8632)" width="21" height="21"/>
</g>
<g>
	<rect x="285.5" y="365.5" transform="matrix(0.7071 -0.7071 0.7071 0.7071 -179.1758 319.4317)" width="21" height="21"/>
</g>
<g>
	<rect x="365.5" y="365.5" transform="matrix(0.7071 -0.7071 0.7071 0.7071 -155.7443 376.0003)" width="21" height="21"/>
</g>
<g>
	<rect x="445.5" y="365.5" transform="matrix(0.7071 -0.7071 0.7071 0.7071 -132.3128 432.5689)" width="21" height="21"/>
</g>
<g>
	<rect x="45.5" y="445.5" transform="matrix(0.7071 -0.7071 0.7071 0.7071 -306.0388 173.1575)" width="21" height="21"/>
</g>
<g>
	<rect x="125.5" y="445.5" transform="matrix(0.7071 -0.7071 0.7071 0.7071 -282.6073 229.7261)" width="21" height="21"/>
</g>
<g>
	<rect x="205.5" y="445.5" transform="matrix(0.7071 -0.7071 0.7071 0.7071 -259.1758 286.2946)" width="21" height="21"/>
</g>
<g>
	<rect x="285.5" y="445.5" transform="matrix(0.7071 -0.7071 0.7071 0.7071 -235.7444 342.8632)" width="21" height="21"/>
</g>
<g>
	<rect x="365.5" y="445.5" transform="matrix(0.7071 -0.7071 0.7071 0.7071 -212.3129 399.4318)" width="21" height="21"/>
</g>
<g>
	<rect x="445.5" y="445.5" transform="matrix(0.7071 -0.7071 0.7071 0.7071 -188.8814 456.0004)" width="21" height="21"/>
</g>
</svg>
