<?xml version="1.0" encoding="utf-8"?>
<!-- Generator: Adobe Illustrator 22.1.0, SVG Export Plug-In . SVG Version: 6.00 Build 0)  -->
<svg version="1.1" id="Layer_1" xmlns="http://www.w3.org/2000/svg" xmlns:xlink="http://www.w3.org/1999/xlink" x="0px" y="0px"
	 viewBox="0 0 512 512" style="enable-background:new 0 0 512 512;" xml:space="preserve">
<style type="text/css">
	.st0{fill:none;stroke:#000000;stroke-width:87.9976;stroke-linecap:square;stroke-miterlimit:10;}
</style>
<g>
	<rect x="45.5" y="45.5" transform="matrix(0.7071 -0.7071 0.7071 0.7071 -23.1958 55.9991)" width="21" height="21"/>
</g>
<g>
	<rect x="125.5" y="45.5" transform="matrix(0.7071 -0.7071 0.7071 0.7071 0.235 112.567)" width="21" height="21"/>
</g>
<g>
	<rect x="205.5" y="45.5" transform="matrix(0.7071 -0.7071 0.7071 0.7071 23.6659 169.1349)" width="21" height="21"/>
</g>
<g>
	<rect x="285.5" y="45.5" transform="matrix(0.7071 -0.7071 0.7071 0.7071 47.0968 225.7027)" width="21" height="21"/>
</g>
<g>
	<rect x="365.5" y="45.5" transform="matrix(0.7071 -0.7071 0.7071 0.7071 70.5276 282.2705)" width="21" height="21"/>
</g>
<g>
	<rect x="445.5" y="45.5" transform="matrix(0.7071 -0.7071 0.7071 0.7071 93.9586 338.8385)" width="21" height="21"/>
</g>
<g>
	<rect x="45.5" y="125.5" transform="matrix(0.7071 -0.7071 0.7071 0.7071 -79.7637 79.4301)" width="21" height="21"/>
</g>
<g>
	<rect x="445.5" y="125.5" transform="matrix(0.7071 -0.7071 0.7071 0.7071 37.3907 362.2693)" width="21" height="21"/>
</g>
<g>
	<rect x="45.5" y="205.5" transform="matrix(0.7071 -0.7071 0.7071 0.7071 -136.3316 102.8609)" width="21" height="21"/>
</g>
<g>
	<rect x="445.5" y="205.5" transform="matrix(0.7071 -0.7071 0.7071 0.7071 -19.1772 385.7002)" width="21" height="21"/>
</g>
<g>
	<rect x="45.5" y="285.5" transform="matrix(0.7071 -0.7071 0.7071 0.7071 -192.8995 126.2918)" width="21" height="21"/>
</g>
<g>
	<rect x="445.5" y="285.5" transform="matrix(0.7071 -0.7071 0.7071 0.7071 -75.7451 409.1311)" width="21" height="21"/>
</g>
<g>
	<rect x="45.5" y="365.5" transform="matrix(0.7071 -0.7071 0.7071 0.7071 -249.4673 149.7227)" width="21" height="21"/>
</g>
<g>
	<rect x="445.5" y="365.5" transform="matrix(0.7071 -0.7071 0.7071 0.7071 -132.3129 432.562)" width="21" height="21"/>
</g>
<g>
	<rect x="45.5" y="445.5" transform="matrix(0.7071 -0.7071 0.7071 0.7071 -306.0352 173.1535)" width="21" height="21"/>
</g>
<g>
	<rect x="125.5" y="445.5" transform="matrix(0.7071 -0.7071 0.7071 0.7071 -282.6044 229.7214)" width="21" height="21"/>
</g>
<g>
	<rect x="205.5" y="445.5" transform="matrix(0.7071 -0.7071 0.7071 0.7071 -259.1735 286.2894)" width="21" height="21"/>
</g>
<g>
	<rect x="285.5" y="445.5" transform="matrix(0.7071 -0.7071 0.7071 0.7071 -235.7426 342.8571)" width="21" height="21"/>
</g>
<g>
	<rect x="365.5" y="445.5" transform="matrix(0.7071 -0.7071 0.7071 0.7071 -212.3117 399.425)" width="21" height="21"/>
</g>
<g>
	<rect x="445.5" y="445.5" transform="matrix(0.7071 -0.7071 0.7071 0.7071 -188.8808 455.9929)" width="21" height="21"/>
</g>
<line class="st0" x1="159.4" y1="352.6" x2="352.6" y2="159.4"/>
<line class="st0" x1="159.4" y1="159.4" x2="352.6" y2="352.6"/>
</svg>
