<?xml version="1.0" encoding="utf-8"?>
<!-- Generator: Adobe Illustrator 22.1.0, SVG Export Plug-In . SVG Version: 6.00 Build 0)  -->
<svg version="1.1" id="Layer_1" xmlns="http://www.w3.org/2000/svg" xmlns:xlink="http://www.w3.org/1999/xlink" x="0px" y="0px"
	 viewBox="0 0 512 512" style="enable-background:new 0 0 512 512;" xml:space="preserve">
<g>
	<rect x="45.5" y="45.5" transform="matrix(0.7071 -0.7071 0.7071 0.7071 -23.1962 55.9994)" width="21" height="21"/>
</g>
<g>
	<rect x="125.5" y="45.5" transform="matrix(0.7071 -0.7071 0.7071 0.7071 0.2347 112.5678)" width="21" height="21"/>
</g>
<g>
	<rect x="205.5" y="45.5" transform="matrix(0.7071 -0.7071 0.7071 0.7071 23.6656 169.1362)" width="21" height="21"/>
</g>
<g>
	<rect x="285.5" y="45.5" transform="matrix(0.7071 -0.7071 0.7071 0.7071 47.0965 225.7045)" width="21" height="21"/>
</g>
<g>
	<rect x="365.5" y="45.5" transform="matrix(0.7071 -0.7071 0.7071 0.7071 70.5273 282.2729)" width="21" height="21"/>
</g>
<g>
	<rect x="445.5" y="45.5" transform="matrix(0.7071 -0.7071 0.7071 0.7071 93.9583 338.8412)" width="21" height="21"/>
</g>
<g>
	<rect x="45.5" y="125.5" transform="matrix(0.7071 -0.7071 0.7071 0.7071 -79.7645 79.4304)" width="21" height="21"/>
</g>
<g>
	<rect x="445.5" y="125.5" transform="matrix(0.7071 -0.7071 0.7071 0.7071 37.3899 362.2721)" width="21" height="21"/>
</g>
<g>
	<rect x="45.5" y="205.5" transform="matrix(0.7071 -0.7071 0.7071 0.7071 -136.3329 102.8613)" width="21" height="21"/>
</g>
<g>
	<rect x="445.5" y="205.5" transform="matrix(0.7071 -0.7071 0.7071 0.7071 -19.1784 385.703)" width="21" height="21"/>
</g>
<g>
	<rect x="45.5" y="285.5" transform="matrix(0.7071 -0.7071 0.7071 0.7071 -192.9013 126.2922)" width="21" height="21"/>
</g>
<g>
	<rect x="445.5" y="285.5" transform="matrix(0.7071 -0.7071 0.7071 0.7071 -75.7468 409.1339)" width="21" height="21"/>
</g>
<g>
	<rect x="45.5" y="365.5" transform="matrix(0.7071 -0.7071 0.7071 0.7071 -249.4696 149.723)" width="21" height="21"/>
</g>
<g>
	<rect x="445.5" y="365.5" transform="matrix(0.7071 -0.7071 0.7071 0.7071 -132.3151 432.5648)" width="21" height="21"/>
</g>
<g>
	<rect x="45.5" y="445.5" transform="matrix(0.7071 -0.7071 0.7071 0.7071 -306.038 173.154)" width="21" height="21"/>
</g>
<g>
	<rect x="125.5" y="445.5" transform="matrix(0.7071 -0.7071 0.7071 0.7071 -282.6071 229.7224)" width="21" height="21"/>
</g>
<g>
	<rect x="205.5" y="445.5" transform="matrix(0.7071 -0.7071 0.7071 0.7071 -259.1761 286.2907)" width="21" height="21"/>
</g>
<g>
	<rect x="285.5" y="445.5" transform="matrix(0.7071 -0.7071 0.7071 0.7071 -235.7453 342.859)" width="21" height="21"/>
</g>
<g>
	<rect x="365.5" y="445.5" transform="matrix(0.7071 -0.7071 0.7071 0.7071 -212.3144 399.4274)" width="21" height="21"/>
</g>
<g>
	<rect x="445.5" y="445.5" transform="matrix(0.7071 -0.7071 0.7071 0.7071 -188.8835 455.9957)" width="21" height="21"/>
</g>
<g>
	<g>
		<path d="M256.2,408.9c-5.5,0-10.6-0.9-15-2.6c-4.5-1.7-8.4-4.1-11.6-7.2c-3.2-3.1-5.7-6.8-7.4-11.1c-1.6-4.2-2.5-8.7-2.5-13.5
			c0-4.9,0.8-9.5,2.5-13.8c1.7-4.3,4.1-8.1,7.3-11.4c3.2-3.2,7.1-5.7,11.7-7.4c4.5-1.7,9.5-2.6,15-2.6c5.4,0,10.4,0.9,14.9,2.6
			c4.6,1.7,8.6,4.3,11.8,7.5c3.2,3.2,5.7,7,7.4,11.3c1.7,4.3,2.6,8.9,2.6,13.8c0,4.8-0.9,9.3-2.6,13.6c-1.8,4.3-4.3,8-7.5,11.1
			c-3.2,3-7.1,5.5-11.7,7.2C266.6,408,261.6,408.9,256.2,408.9z M227.7,320.1v-4.8c0-9.1,0.2-16.9,0.7-23.2
			c0.5-6.6,1.6-12.7,3.5-18.1c1.9-5.5,4.7-10.7,8.4-15.4c3.6-4.5,8.6-9.3,14.9-14.3c4.3-3.9,8.7-8.1,13-12.5
			c4.3-4.3,8.2-8.8,11.6-13.4c3.3-4.4,6.1-9,8.1-13.6c1.9-4.3,2.9-8.6,2.9-12.9c0-10.3-2.7-17.8-7.9-22.3c-5.5-4.7-13.8-7-24.8-7
			c-4.2,0-8.4,0.6-12.4,1.7c-3.8,1.1-7.2,2.8-10.1,5.1c-2.9,2.3-5.3,5.3-7.1,8.9c-1.8,3.6-2.8,8.1-2.9,13.4l-0.1,4.7h-64.2l0-4.9
			c0.1-14,2.8-26.3,7.9-36.8c5.1-10.4,12.1-19.2,20.9-26.2c8.7-6.9,19-12.1,30.6-15.4c11.5-3.3,24-5,37.3-5
			c14.8,0,28.4,1.7,40.2,5.1c12.1,3.4,22.4,8.6,30.8,15.5c8.4,6.9,15,15.6,19.4,25.7c4.4,10.1,6.7,21.9,6.7,35
			c0,9.8-1.7,19-5.1,27.1c-3.3,8-7.5,15.5-12.7,22.4c-5.1,6.8-11,13.3-17.5,19.4c-6.3,5.9-12.7,11.7-19.1,17.3
			c-3.7,3.7-6.6,6.9-8.6,9.7c-1.9,2.5-3.2,5.2-4.1,7.8c-0.9,2.8-1.4,5.8-1.6,9.2c-0.3,3.6-0.4,7.9-0.4,13v4.8H227.7z"/>
		<path d="M258.1,113c14.5,0,27.4,1.6,38.9,4.9c11.5,3.3,21.1,8.1,29,14.6c7.9,6.4,13.9,14.4,18.1,23.9c4.2,9.5,6.3,20.5,6.3,33
			c0,9.3-1.6,17.7-4.7,25.3c-3.1,7.6-7.2,14.7-12.1,21.3c-5,6.6-10.6,12.8-16.9,18.8c-6.3,5.9-12.7,11.7-19.1,17.3
			c-3.9,3.9-7,7.4-9.2,10.4c-2.2,3-3.8,6.1-4.8,9.2c-1,3.1-1.6,6.5-1.9,10.3c-0.3,3.7-0.4,8.2-0.4,13.4h-48.9c0-9,0.2-16.6,0.7-22.9
			c0.5-6.3,1.5-11.9,3.2-16.9c1.7-5,4.2-9.6,7.6-13.9c3.4-4.2,8.1-8.8,14.3-13.6c4.4-4,8.9-8.3,13.3-12.8c4.4-4.5,8.4-9.1,12-13.9
			c3.6-4.8,6.5-9.6,8.7-14.6c2.2-4.9,3.3-9.9,3.3-14.9c0-11.9-3.2-20.5-9.6-26c-6.4-5.5-15.7-8.2-27.9-8.2c-4.7,0-9.3,0.6-13.7,1.9
			c-4.4,1.2-8.4,3.2-11.8,6c-3.5,2.7-6.3,6.3-8.4,10.6c-2.2,4.3-3.3,9.4-3.4,15.4h-54.5c0.1-13.3,2.6-24.9,7.4-34.7
			c4.8-9.8,11.3-18,19.5-24.5c8.2-6.5,17.8-11.4,28.9-14.6C233.2,114.6,245.2,113,258.1,113 M256.2,344.2c4.8,0,9.2,0.8,13.2,2.2
			c4,1.5,7.3,3.6,10.1,6.4c2.7,2.7,4.9,6,6.4,9.7c1.5,3.7,2.2,7.7,2.2,12c0,4.2-0.8,8.1-2.2,11.7c-1.5,3.6-3.6,6.8-6.4,9.4
			c-2.7,2.6-6.1,4.7-10.1,6.2c-4,1.5-8.4,2.2-13.2,2.2c-5,0-9.4-0.8-13.3-2.2c-3.9-1.5-7.2-3.5-10-6.2c-2.7-2.6-4.8-5.7-6.3-9.4
			c-1.4-3.6-2.1-7.6-2.1-11.7c0-4.3,0.7-8.3,2.1-12c1.4-3.7,3.5-6.9,6.3-9.7c2.7-2.7,6.1-4.9,10-6.4
			C246.8,345,251.2,344.2,256.2,344.2 M258.1,103.3c-13.7,0-26.7,1.7-38.6,5.2c-12.2,3.5-23.1,9-32.3,16.3
			c-9.3,7.4-16.8,16.8-22.2,27.9c-5.4,11.1-8.3,24.2-8.4,38.9l-0.1,9.8h9.8h54.5h9.5l0.2-9.5c0.1-4.5,0.9-8.3,2.4-11.3
			c1.5-3,3.4-5.4,5.8-7.3c2.5-1.9,5.2-3.3,8.4-4.2c3.6-1,7.3-1.5,11.1-1.5c9.8,0,17.1,2,21.6,5.9c4.1,3.5,6.2,9.8,6.2,18.6
			c0,3.6-0.8,7.2-2.5,10.9c-1.9,4.3-4.5,8.5-7.6,12.7c-3.3,4.4-7.1,8.7-11.2,12.9c-4.2,4.3-8.5,8.4-12.7,12.2
			c-6.6,5.2-11.7,10.1-15.6,14.9c-4.1,5.1-7.2,10.8-9.2,16.8c-1.9,5.8-3.2,12.3-3.7,19.3c-0.5,6.4-0.7,14.4-0.7,23.6v9.7h9.7h48.9
			h9.7v-9.7c0-5,0.1-9.3,0.4-12.7c0.2-3,0.7-5.7,1.4-8.1c0.7-2.1,1.8-4.2,3.3-6.3c1.9-2.5,4.6-5.6,8-9c6.3-5.6,12.7-11.4,19.1-17.3
			c6.7-6.3,12.8-13,18-20c5.4-7.2,9.9-15.1,13.3-23.5c3.6-8.8,5.4-18.5,5.4-29c0-13.8-2.4-26.2-7.1-36.9
			c-4.8-10.9-11.8-20.2-20.8-27.6c-8.9-7.3-19.8-12.8-32.5-16.4C287.4,105.1,273.4,103.3,258.1,103.3L258.1,103.3z M256.2,334.5
			c-6.1,0-11.7,1-16.8,2.9c-5.2,2-9.7,4.9-13.4,8.6c-3.7,3.7-6.5,8.1-8.4,13c-1.9,4.8-2.8,10-2.8,15.5c0,5.4,0.9,10.5,2.8,15.3
			c1.9,4.9,4.8,9.3,8.6,12.8c3.7,3.5,8.1,6.2,13.2,8.2c5,1.9,10.6,2.9,16.8,2.9c6,0,11.5-1,16.6-2.9c5.2-2,9.7-4.7,13.3-8.2
			c3.7-3.5,6.6-7.8,8.6-12.7c2-4.8,3-10,3-15.4c0-5.5-1-10.8-2.9-15.6c-2-4.9-4.8-9.3-8.5-12.9c-3.7-3.7-8.2-6.6-13.5-8.6
			C267.7,335.5,262.1,334.5,256.2,334.5L256.2,334.5z"/>
	</g>
</g>
</svg>
