<?xml version="1.0" encoding="utf-8"?>
<!-- Generator: Adobe Illustrator 22.1.0, SVG Export Plug-In . SVG Version: 6.00 Build 0)  -->
<svg version="1.1" id="Layer_1" xmlns="http://www.w3.org/2000/svg" xmlns:xlink="http://www.w3.org/1999/xlink" x="0px" y="0px"
	 viewBox="0 0 1000 1000" style="enable-background:new 0 0 1000 1000;" xml:space="preserve">
<style type="text/css">
	.st0{fill:#473E8D;}
	.st1{fill:#7C76B4;}
	.st2{fill:#72B276;}
	.st3{fill:#FADA2F;}
	.st4{fill:none;stroke:#000000;stroke-width:60;stroke-miterlimit:10;}
	.st5{fill:none;stroke:#000000;stroke-width:10;stroke-miterlimit:10;}
	.st6{fill:#EF613D;}
	.st7{fill:#FFFFFF;}
	.st8{fill:none;stroke:#FFFFFF;stroke-width:10;stroke-miterlimit:10;}
	.st9{font-family:'Times-BoldItalic';}
	.st10{font-size:48px;}
	.st11{font-size:84.0373px;}
</style>
<rect x="500" y="500" transform="matrix(-1 -3.571395e-07 3.571395e-07 -1 1499.9999 1500.0004)" class="st0" width="500" height="500"/>
<rect x="0" y="500" transform="matrix(-1 -3.571395e-07 3.571395e-07 -1 499.9995 1499.9999)" class="st1" width="500" height="500"/>
<rect x="500" y="0" transform="matrix(-1 -3.571395e-07 3.571395e-07 -1 1500.0004 500.0001)" class="st2" width="500" height="500"/>
<rect x="0" y="0" class="st3" width="500" height="500"/>
<circle class="st4" cx="500" cy="500" r="290"/>
<polyline class="st5" points="873.8,521.4 895.2,500 873.8,478.6 "/>
<polyline class="st5" points="521.4,126.2 500,104.8 478.6,126.2 "/>
<polyline class="st5" points="126.2,478.6 104.8,500 126.2,521.4 "/>
<polyline class="st5" points="478.6,873.8 500,895.2 521.4,873.8 "/>
<path class="st6" d="M500,500h290c0-45.4-10.7-90.2-31.1-130.7c-20.5-40.5-50.2-75.7-86.7-102.7L500,500z"/>
<circle class="st7" cx="672.1" cy="266.6" r="19.5"/>
<polyline class="st8" points="672.1,266.6 500,266.6 500,500 672.1,500 672.1,266.6 "/>
<g>
	<path class="st7" d="M928.3,460.7h10.2l2.2-10.2h4.3l-2.2,10.2H953l-0.9,4.3h-10.2l-2.2,10.2h-4.3l2.2-10.2h-10.2L928.3,460.7z"/>
	<path class="st7" d="M967.7,459.6c1.8-2.4,3.2-4.1,4.3-5.1c1.1-1,2.1-1.5,3.2-1.5c1.2,0,2.1,0.4,2.6,1.3c0.2,0.4,0.4,1,0.4,1.6
		c0,0.6-0.3,1.2-0.8,1.8c-0.5,0.5-1.1,0.8-1.9,0.8c-0.5,0-1-0.2-1.5-0.5s-1-0.5-1.3-0.5c-0.6,0-1.1,0.3-1.7,0.9
		c-0.5,0.6-1.4,1.8-2.7,3.8l0.4,2.3c0.2,1.2,0.4,2.2,0.6,3c0.2,0.8,0.3,1.5,0.5,2.1c0.3,0.9,0.5,1.6,0.8,2c0.3,0.4,0.6,0.6,1.1,0.6
		c0.4,0,1-0.3,1.6-1c0.3-0.3,0.9-1,1.6-1.9l1,0.7c-0.8,1.4-1.9,2.7-3.2,4s-2.6,1.9-3.9,1.9c-1.1,0-1.9-0.4-2.6-1.3
		c-0.4-0.5-0.7-1.1-1-1.9c-0.2-0.4-0.4-1.2-0.6-2.2c-0.3-1.1-0.4-1.7-0.5-2l-0.3,0.6c-1.5,2.7-2.7,4.4-3.4,5.2
		c-1.1,1.2-2.3,1.8-3.8,1.8c-0.8,0-1.5-0.3-2.1-0.8s-0.9-1.2-0.9-2.1c0-0.7,0.2-1.3,0.7-1.9s1.1-0.9,1.9-0.9c0.5,0,1.1,0.2,1.8,0.5
		s1.2,0.5,1.4,0.5c0.5,0,0.9-0.2,1.3-0.6s1-1.5,2.1-3.2l0.9-1.5c-0.2-0.7-0.3-1.5-0.5-2.4c-0.2-1-0.4-1.9-0.6-2.9l-0.4-2
		c-0.3-1.4-0.7-2.4-1.3-2.8c-0.3-0.3-0.9-0.4-1.6-0.4c-0.1,0-0.3,0-0.6,0s-0.6,0.1-0.9,0.1v-1.3c1.4-0.2,2.9-0.4,4.6-0.7
		c1.7-0.3,2.8-0.5,3.4-0.6c0.5,0.6,0.9,1.4,1.2,2.3c0.3,0.9,0.5,1.8,0.7,2.8L967.7,459.6z"/>
</g>
<g>
	<path class="st7" d="M530.4,52.7h10.2l2.2-10.2h4.3l-2.2,10.2h10.2l-0.9,4.3H544l-2.2,10.2h-4.3l2.2-10.2h-10.2L530.4,52.7z"/>
	<path class="st7" d="M562.9,71.3c1.1-1.3,1.6-2.6,1.6-3.8c0-1.1-0.3-3.3-0.9-6.6c-0.4-2.1-0.8-4.2-1.2-6.2
		c-0.8-3.6-1.4-5.7-1.8-6.3s-1.1-1-2.2-1v-1.3c1.5-0.1,3-0.4,4.7-0.7c1.6-0.3,2.4-0.4,2.2-0.4l0.3,0c0.4,1.1,0.9,3.3,1.7,6.6
		s1.4,6.3,1.8,8.9l0.2,1.1l0.9-1.5c0.7-1.2,1.5-2.7,2.2-4.5s1.1-2.9,1.1-3.5c0-0.3-0.1-0.6-0.2-0.9s-0.4-0.5-0.8-0.8l-0.4-0.3
		c-0.3-0.2-0.5-0.4-0.8-0.8c-0.4-0.5-0.5-1.1-0.5-1.6c0-0.7,0.3-1.3,0.8-1.9s1.2-0.9,2-0.9c0.7,0,1.4,0.3,2,0.8c0.6,0.5,1,1.4,1,2.5
		c0,1.9-0.9,4.8-2.7,8.6c-1.3,2.8-2.9,5.7-4.7,8.5c-2.5,4-4.8,6.9-6.8,8.8c-2,1.9-4.1,2.8-6.2,2.8c-0.9,0-1.6-0.3-2.2-0.9
		c-0.6-0.6-0.9-1.3-0.9-2c0-0.8,0.3-1.4,0.8-1.9c0.5-0.5,1.2-0.7,1.9-0.7c0.7,0,1.5,0.3,2.4,0.8s1.5,0.8,1.8,0.8
		C560.9,73.3,561.8,72.6,562.9,71.3z"/>
</g>
<g>
	<path class="st7" d="M537.6,945.6h11.8l-2.3,5.6h-11.8L537.6,945.6z"/>
	<path class="st7" d="M557.2,963.4c1.1-1.3,1.6-2.6,1.6-3.8c0-1.1-0.3-3.3-0.9-6.6c-0.4-2.1-0.8-4.2-1.2-6.2
		c-0.8-3.6-1.4-5.7-1.8-6.3s-1.1-1-2.2-1v-1.3c1.5-0.1,3-0.4,4.7-0.7c1.6-0.3,2.4-0.4,2.2-0.4l0.3,0c0.4,1.1,0.9,3.3,1.7,6.6
		s1.4,6.3,1.8,8.9l0.2,1.1l0.9-1.5c0.7-1.2,1.5-2.7,2.2-4.5s1.1-2.9,1.1-3.5c0-0.3-0.1-0.6-0.2-0.9s-0.4-0.5-0.8-0.8l-0.4-0.3
		c-0.3-0.2-0.5-0.4-0.8-0.8c-0.4-0.5-0.5-1.1-0.5-1.6c0-0.7,0.3-1.3,0.8-1.9s1.2-0.9,2-0.9c0.7,0,1.4,0.3,2,0.8c0.6,0.5,1,1.4,1,2.5
		c0,1.9-0.9,4.8-2.7,8.6c-1.3,2.8-2.9,5.7-4.7,8.5c-2.5,4-4.8,6.9-6.8,8.8c-2,1.9-4.1,2.8-6.2,2.8c-0.9,0-1.6-0.3-2.2-0.9
		s-0.9-1.3-0.9-2c0-0.8,0.3-1.4,0.8-1.9s1.2-0.7,1.9-0.7c0.7,0,1.5,0.3,2.4,0.8s1.5,0.8,1.8,0.8
		C555.2,965.3,556.1,964.7,557.2,963.4z"/>
</g>
<g>
	<path class="st7" d="M33.4,461.5h11.8l-2.3,5.6H31.1L33.4,461.5z"/>
	<path class="st7" d="M59.9,459.6c1.8-2.4,3.2-4.1,4.3-5.1c1.1-1,2.1-1.5,3.2-1.5c1.2,0,2.1,0.4,2.6,1.3c0.2,0.4,0.4,1,0.4,1.6
		c0,0.6-0.3,1.2-0.8,1.8c-0.5,0.5-1.1,0.8-1.9,0.8c-0.5,0-1-0.2-1.5-0.5c-0.6-0.3-1-0.5-1.3-0.5c-0.6,0-1.1,0.3-1.7,0.9
		c-0.5,0.6-1.4,1.8-2.7,3.8l0.4,2.3c0.2,1.2,0.4,2.2,0.6,3s0.3,1.5,0.5,2.1c0.3,0.9,0.5,1.6,0.8,2c0.3,0.4,0.6,0.6,1.1,0.6
		c0.4,0,1-0.3,1.6-1c0.3-0.3,0.9-1,1.6-1.9l1,0.7c-0.8,1.4-1.9,2.7-3.2,4s-2.6,1.9-3.9,1.9c-1.1,0-1.9-0.4-2.6-1.3
		c-0.4-0.5-0.7-1.1-1-1.9c-0.2-0.4-0.4-1.2-0.6-2.2c-0.3-1.1-0.4-1.7-0.5-2l-0.3,0.6c-1.5,2.7-2.7,4.4-3.4,5.2
		c-1.1,1.2-2.3,1.8-3.8,1.8c-0.8,0-1.5-0.3-2.1-0.8s-0.9-1.2-0.9-2.1c0-0.7,0.2-1.3,0.7-1.9s1.1-0.9,1.9-0.9c0.5,0,1.1,0.2,1.8,0.5
		s1.2,0.5,1.4,0.5c0.5,0,0.9-0.2,1.3-0.6s1-1.5,2.1-3.2l0.9-1.5c-0.2-0.7-0.3-1.5-0.5-2.4c-0.2-1-0.4-1.9-0.6-2.9l-0.4-2
		c-0.3-1.4-0.7-2.4-1.3-2.8c-0.3-0.3-0.9-0.4-1.6-0.4c-0.1,0-0.3,0-0.6,0s-0.6,0.1-0.9,0.1v-1.3c1.4-0.2,2.9-0.4,4.6-0.7
		c1.7-0.3,2.8-0.5,3.4-0.6c0.5,0.6,0.9,1.4,1.2,2.3c0.3,0.9,0.5,1.8,0.7,2.8L59.9,459.6z"/>
</g>
<text transform="matrix(1 0 0 1 554.0822 543.885)" class="st7 st9 st10">cos</text>
<text transform="matrix(0.8469 -0.5318 0.5318 0.8469 813.4692 367.6839)" class="st6 st9 st11">angle</text>
<text transform="matrix(1 0 0 1 554.0822 251.1225)" class="st7 st9 st10">cos</text>
<text transform="matrix(0 -1 1 0 479.8338 410.6582)" class="st7 st9 st10">sin</text>
<text transform="matrix(0 -1 1 0 715.8889 410.6582)" class="st7 st9 st10">sin</text>
</svg>
