<?xml version="1.0" encoding="utf-8"?>
<!-- Generator: Adobe Illustrator 24.2.3, SVG Export Plug-In . SVG Version: 6.00 Build 0)  -->
<svg version="1.1" id="Calque_1" xmlns="http://www.w3.org/2000/svg" xmlns:xlink="http://www.w3.org/1999/xlink" x="0px" y="0px"
	 viewBox="0 0 800 800" enable-background="new 0 0 800 800" xml:space="preserve">
<rect fill="#EEEEEE" width="100" height="100"/>
<rect x="100" fill="#FFFFFF" width="100" height="100"/>
<rect x="200" fill="#EEEEEE" width="100" height="100"/>
<rect x="300" fill="#FFFFFF" width="100" height="100"/>
<rect x="400" fill="#EEEEEE" width="100" height="100"/>
<rect x="500" fill="#FFFFFF" width="100" height="100"/>
<rect x="600" fill="#EEEEEE" width="100" height="100"/>
<rect x="700" fill="#FFFFFF" width="100" height="100"/>
<rect y="100" fill="#FFFFFF" width="100" height="100"/>
<rect x="100" y="100" fill="#EEEEEE" width="100" height="100"/>
<rect x="200" y="100" fill="#FFFFFF" width="100" height="100"/>
<rect x="300" y="100" fill="#EEEEEE" width="100" height="100"/>
<rect x="400" y="100" fill="#FFFFFF" width="100" height="100"/>
<rect x="500" y="100" fill="#EEEEEE" width="100" height="100"/>
<rect x="600" y="100" fill="#FFFFFF" width="100" height="100"/>
<rect x="700" y="100" fill="#EEEEEE" width="100" height="100"/>
<rect y="200" fill="#EEEEEE" width="100" height="100"/>
<rect x="100" y="200" fill="#FFFFFF" width="100" height="100"/>
<rect x="200" y="200" fill="#EEEEEE" width="100" height="100"/>
<rect x="300" y="200" fill="#FFFFFF" width="100" height="100"/>
<rect x="400" y="200" fill="#EEEEEE" width="100" height="100"/>
<rect x="500" y="200" fill="#FFFFFF" width="100" height="100"/>
<rect x="600" y="200" fill="#EEEEEE" width="100" height="100"/>
<rect x="700" y="200" fill="#FFFFFF" width="100" height="100"/>
<rect y="300" fill="#FFFFFF" width="100" height="100"/>
<rect x="100" y="300" fill="#EEEEEE" width="100" height="100"/>
<rect x="200" y="300" fill="#FFFFFF" width="100" height="100"/>
<rect x="300" y="300" fill="#EEEEEE" width="100" height="100"/>
<rect x="400" y="300" fill="#FFFFFF" width="100" height="100"/>
<rect x="500" y="300" fill="#EEEEEE" width="100" height="100"/>
<rect x="600" y="300" fill="#FFFFFF" width="100" height="100"/>
<rect x="700" y="300" fill="#EEEEEE" width="100" height="100"/>
<rect y="400" fill="#EEEEEE" width="100" height="100"/>
<rect x="100" y="400" fill="#FFFFFF" width="100" height="100"/>
<rect x="200" y="400" fill="#EEEEEE" width="100" height="100"/>
<rect x="300" y="400" fill="#FFFFFF" width="100" height="100"/>
<rect x="400" y="400" fill="#EEEEEE" width="100" height="100"/>
<rect x="500" y="400" fill="#FFFFFF" width="100" height="100"/>
<rect x="600" y="400" fill="#EEEEEE" width="100" height="100"/>
<rect x="700" y="400" fill="#FFFFFF" width="100" height="100"/>
<rect y="500" fill="#FFFFFF" width="100" height="100"/>
<rect x="100" y="500" fill="#EEEEEE" width="100" height="100"/>
<rect x="200" y="500" fill="#FFFFFF" width="100" height="100"/>
<rect x="300" y="500" fill="#EEEEEE" width="100" height="100"/>
<rect x="400" y="500" fill="#FFFFFF" width="100" height="100"/>
<rect x="500" y="500" fill="#EEEEEE" width="100" height="100"/>
<rect x="600" y="500" fill="#FFFFFF" width="100" height="100"/>
<rect x="700" y="500" fill="#EEEEEE" width="100" height="100"/>
<rect y="600" fill="#EEEEEE" width="100" height="100"/>
<rect x="100" y="600" fill="#FFFFFF" width="100" height="100"/>
<rect x="200" y="600" fill="#EEEEEE" width="100" height="100"/>
<rect x="300" y="600" fill="#FFFFFF" width="100" height="100"/>
<rect x="400" y="600" fill="#EEEEEE" width="100" height="100"/>
<rect x="500" y="600" fill="#FFFFFF" width="100" height="100"/>
<rect x="600" y="600" fill="#EEEEEE" width="100" height="100"/>
<rect x="700" y="600" fill="#FFFFFF" width="100" height="100"/>
<rect y="700" fill="#FFFFFF" width="100" height="100"/>
<rect x="100" y="700" fill="#EEEEEE" width="100" height="100"/>
<rect x="200" y="700" fill="#FFFFFF" width="100" height="100"/>
<rect x="300" y="700" fill="#EEEEEE" width="100" height="100"/>
<rect x="400" y="700" fill="#FFFFFF" width="100" height="100"/>
<rect x="500" y="700" fill="#EEEEEE" width="100" height="100"/>
<rect x="600" y="700" fill="#FFFFFF" width="100" height="100"/>
<rect x="700" y="700" fill="#EEEEEE" width="100" height="100"/>
</svg>
